<svg width="44" height="44" viewBox="0 0 44 44" fill="none" xmlns="http://www.w3.org/2000/svg">
<path d="M19.8915 6.21704H5.97588C4.92141 6.21704 3.91013 6.63593 3.16451 7.38155C2.41889 8.12717 2 9.13845 2 10.1929V38.0241C2 39.0786 2.41889 40.0898 3.16451 40.8355C3.91013 41.5811 4.92141 42 5.97588 42H33.8071C34.8615 42 35.8728 41.5811 36.6184 40.8355C37.3641 40.0898 37.7829 39.0786 37.7829 38.0241V24.1085" stroke="black" stroke-width="3" stroke-linecap="round" stroke-linejoin="round"/>
<path d="M34.8011 3.23515C35.5919 2.4443 36.6645 2 37.783 2C38.9014 2 39.974 2.4443 40.7649 3.23515C41.5557 4.026 42 5.09863 42 6.21706C42 7.33549 41.5557 8.40812 40.7649 9.19897L21.8794 28.0844L13.9277 30.0724L15.9156 22.1206L34.8011 3.23515Z" stroke="black" stroke-width="3" stroke-linecap="round" stroke-linejoin="round"/>
</svg>
